<svg enable-background="new 0 0 792 612" height="199.05211" viewBox="0 0 312.49997 199.05211" width="312.49997" xmlns="http://www.w3.org/2000/svg" xmlns:xlink="http://www.w3.org/1999/xlink"><linearGradient id="a"><stop offset="0" stop-color="#1a1a1a"/><stop offset=".3497" stop-color="#1a1a1a"/><stop offset="1" stop-color="#666"/></linearGradient><linearGradient id="b" gradientUnits="userSpaceOnUse" x1="606.08722" x2="606.08722" xlink:href="#a" y1="340.75" y2="213.5137"/><linearGradient id="c" gradientUnits="userSpaceOnUse" x1="577.59167" x2="577.59167" xlink:href="#a" y1="340.75" y2="213.5137"/><linearGradient id="d" gradientUnits="userSpaceOnUse" x1="470.4949" x2="470.4949" y1="211.17821" y2="348.97021"><stop offset="0" stop-color="#d5e20f"/><stop offset=".2515" stop-color="#d5e20f"/><stop offset="1" stop-color="#d5e20f" stop-opacity="0"/></linearGradient><radialGradient id="e" cx="663.78833" cy="236.9447" gradientUnits="userSpaceOnUse" r="20.632401"><stop offset="0" stop-color="#b3b3b3"/><stop offset="1" stop-color="#4d4d4d"/></radialGradient><g transform="translate(-372.9 -149.84789)"><path clip-rule="evenodd" d="m397.3 157.5s18.9-25.5 130.3 16.6c118.1 44.7 82.1 81.6 80.1 83.7s-45.3 29.6-152.8 2.8c-116.2-28.9-57.6-103.1-57.6-103.1z" fill="#e6e6e6" fill-rule="evenodd" opacity=".75"/><path d="m607.7 226.3c5.4-4.2 14.5-4.5 22.9-3.4 25.2 3.3 46.1 29.9 46.1 53.1 0 35.7-50.6 43.9-57.7 38.4-2.9 18.3-23.9 25.6-40.5 25.6-10.9 0-19.7 1.6-26.9 0-1.3-90.6-23.3-95.3-13.9-106.6 10.2-12.3 24.7-19.9 40.7-19.9 10.8 0 24.4 6.4 29.3 12.8z" fill="url(#b)"/><path d="m607.7 226.3c-4.9-6.4-18.5-12.8-29.2-12.8-16.1 0-30.5 7.7-40.7 19.9-9.4 11.3 12.6 16 13.9 106.6 7.1 1.6 15.9 0 26.9 0 16.5 0 36-6.6 40.5-25.6 3.5-14.9-7.9-38.6-9-51.4-2.2-22.5-1.1-21.3-2.4-36.7z" fill="url(#c)"/><g clip-rule="evenodd"><path d="m587.1 339s44.9-2.6 29.4-50.2l-4.7-16c9.6 46.8-24.7 41.1-24.7 66.2z" fill-rule="evenodd" opacity=".1"/><path d="m489.6 277.4v50.5c0 6.5-1.9 11.7-5.6 15.4-3.6 3.7-8 5.6-13.2 5.6s-9.6-1.9-13.2-5.6-5.3-8.9-5.3-15.4v-50.5c0-19.8-6.9-29.7-20.8-29.7-14.2 0-21.3 9.9-21.3 29.7v50.5c0 6.5-1.8 11.7-5.3 15.4-3.6 3.7-8 5.6-13.2 5.6s-9.7-1.9-13.5-5.6c-3.6-3.7-5.3-8.9-5.3-15.4v-60.1c0-15.5 5.8-28.8 17.4-39.9 11.6-11.2 24.8-16.8 39.6-16.8 14.2 0 27.8 5.1 40.7 15.4 11.8-10.1 24.6-15.2 38.4-15.2 16.3 0 30.2 5.7 41.8 17.1s17.4 25.3 17.4 41.5v57.8c0 6.5-1.9 11.7-5.6 15.4-3.6 3.7-7.9 5.6-13.2 5.6-5.2 0-9.6-1.9-13.2-5.6s-5.3-8.9-5.3-15.4v-50.5c0-8.2-.7-14-2.2-17.4-3.6-8-9.7-12.1-18.5-12.1-13.8.2-20.6 10.1-20.6 29.7z" fill="#8ed300" fill-rule="evenodd"/><path d="m489.6 277.4v50.5c0 6.5-1.9 11.7-5.6 15.4-3.6 3.7-8 5.6-13.2 5.6s-9.6-1.9-13.2-5.6-5.3-8.9-5.3-15.4v-50.5c0-19.8-6.9-29.7-20.8-29.7-14.2 0-21.3 9.9-21.3 29.7v50.5c0 6.5-1.8 11.7-5.3 15.4-3.6 3.7-8 5.6-13.2 5.6s-9.7-1.9-13.5-5.6c-3.6-3.7-5.3-8.9-5.3-15.4v-60.1c0-15.5 5.8-28.8 17.4-39.9 11.6-11.2 24.8-16.8 39.6-16.8 14.2 0 27.8 5.1 40.7 15.4 11.8-10.1 24.6-15.2 38.4-15.2 16.3 0 30.2 5.7 41.8 17.1s17.4 25.3 17.4 41.5v57.8c0 6.5-1.9 11.7-5.6 15.4-3.6 3.7-7.9 5.6-13.2 5.6-5.2 0-9.6-1.9-13.2-5.6s-5.3-8.9-5.3-15.4v-50.5c0-8.2-.7-14-2.2-17.4-3.6-8-9.7-12.1-18.5-12.1-13.8.2-20.6 10.1-20.6 29.7z" fill="url(#d)" fill-rule="evenodd"/><path d="m411.8 167.8s18.9-25.5 130.3 16.6c118.1 44.7 82.1 81.6 80.1 83.7s-45.3 29.6-152.8 2.8c-116.3-28.9-57.6-103.1-57.6-103.1z" fill="#fff" fill-rule="evenodd" opacity=".8"/><path d="m642.1 255.6c-9.7-11.2-11.1-21.9-4.3-27.8s17.4-2.9 27.1 8.2c9.7 11.2 10.2 26.1 2.4 30.5-7.4 4.3-15.5.3-25.2-10.9z" fill="#4d4d4d" fill-rule="evenodd"/><path d="m644 254.6c-9.7-11.2-11.1-21.9-4.3-27.8s17.4-2.9 27.1 8.2c9.7 11.2 10.2 26.1 2.4 30.5-7.5 4.3-15.5.3-25.2-10.9z" fill="url(#e)" fill-rule="evenodd"/><path d="m630.2 222.9s6.1-46.4 51.2-35.6" fill="none" stroke="#666" stroke-miterlimit="3.8637"/><path d="m630.2 222.9s6.1-46.4 51.2-35.6" fill="none" stroke="#666" stroke-miterlimit="3.8637" stroke-width="2.058"/><path d="m626.4 226.8s-4.6-48.4 40.8-29.6" fill="none" stroke="#666" stroke-miterlimit="3.8637" stroke-width="2.058"/><path d="m626.4 226.8s-4.6-48.4 40.8-29.6" fill="none" stroke="#666" stroke-miterlimit="3.8637" stroke-width="2.058"/><circle cx="682.59998" cy="187.3" fill="#666" fill-rule="evenodd" r="2.8"/><circle cx="668.29999" cy="197.2" fill="#666" fill-rule="evenodd" r="3.3"/><path d="m628.8 254.2c.6 10.6-5.9 17.2-6.7 18.1-2 2.1-45.3 29.6-152.8 2.8-59.7-14.9-73.3-41.7-72.3-64.2.8 38.1 46.9 56.4 98.2 65.7 70.8 12.8 109.1 2.7 126.3-7.7 6.3-6.1 7.3-14.7 7.3-14.7z" fill-rule="evenodd" opacity=".1"/><path d="m650.7 227.2s5 .5 8.1 5.8c3.1 5.2-7.6-.1-9.4-3-2-3.3 1.3-2.8 1.3-2.8z" fill="#fff" fill-rule="evenodd" opacity=".15"/></g></g></svg>
